<?xml version="1.0" standalone="no"?>
<!DOCTYPE svg PUBLIC "-//W3C//DTD SVG 20010904//EN"
 "http://www.w3.org/TR/2001/REC-SVG-20010904/DTD/svg10.dtd">
<svg version="1.0" xmlns="http://www.w3.org/2000/svg"
 width="512.000000pt" height="512.000000pt" viewBox="0 0 512.000000 512.000000"
 preserveAspectRatio="xMidYMid meet">
<metadata>
Created by potrace 1.11, written by Peter Selinger 2001-2013
</metadata>
<g transform="translate(0.000000,512.000000) scale(0.100000,-0.100000)"
fill="#000000" stroke="none">
<path d="M2205 4388 c4 -18 52 -247 108 -508 l102 -475 366 -3 365 -2 108 502
c58 277 106 506 106 511 0 4 -261 7 -580 7 l-581 0 6 -32z"/>
<path d="M2420 3075 l0 -185 363 2 362 3 3 183 2 182 -365 0 -365 0 0 -185z"/>
<path d="M670 2315 c0 -481 2 -575 14 -575 7 0 235 47 506 105 272 58 495 105
497 105 2 0 3 164 3 365 l0 365 -22 5 c-99 23 -972 205 -983 205 -13 0 -15
-77 -15 -575z"/>
<path d="M1830 2315 l0 -365 185 0 185 0 0 365 0 365 -185 0 -185 0 0 -365z"/>
<path d="M2570 2515 l-125 -125 130 -130 130 -130 130 130 129 129 -128 123
c-71 68 -132 124 -135 126 -3 1 -62 -54 -131 -123z"/>
<path d="M2970 2115 l-255 -255 127 -127 128 -128 258 255 258 255 -126 128
c-68 70 -127 127 -130 127 -3 0 -120 -115 -260 -255z"/>
<path d="M3335 1760 l-258 -259 168 -258 c92 -142 217 -336 279 -430 61 -95
113 -173 116 -173 3 0 189 184 413 408 l409 409 -324 208 c-178 115 -373 241
-434 281 l-111 72 -258 -258z"/>
</g>
</svg>
